# xmcd
#
# Track frame offsets:
#	150
#	16262
#	34124
#	60356
#	76085
#	87541
#	92419
#	119275
#	133886
#	152591
#	170188
#	178618
#	197352
#	224859
#
# Disc length: 3390 seconds
#
# Revision: 0
# Processed by: cddbd v1.5.1PL2 Copyright (c) Steve Scherf et al.
# Submitted via: EasyCDDAExtractor 9.1.3.1
#
DISCID=b70d3c0e
DTITLE=Billy's Band - Немного смерти немного любви
DYEAR=2003
DGENRE=Acid Jazz
TTITLE0=Немного смерти немного любви
TTITLE1=Кафе "Последний Путь"
TTITLE2=Открытка от...
TTITLE3=На его месте должен быть я
TTITLE4=Последний день Карлоса
TTITLE5=Дорожная (интро)
TTITLE6=Дорожная
TTITLE7=Билльярд
TTITLE8=Все хорошо
TTITLE9=Никогда не разговаривай с мертвецами
TTITLE10=Другая сторона дороги
TTITLE11=Муз Замбела
TTITLE12=Зимний сон
TTITLE13=Поезд в огне
EXTD=
EXTT0=
EXTT1=
EXTT2=
EXTT3=
EXTT4=
EXTT5=
EXTT6=
EXTT7=
EXTT8=
EXTT9=
EXTT10=
EXTT11=
EXTT12=
EXTT13=
PLAYORDER=
